<svg xmlns="http://www.w3.org/2000/svg" width="1024" height="1024"><path fill="#208EE8" d="M0 0h1024v1024H0V0Z"/><path fill="#FEFEFE" d="m411.309 163.71 7.254-.02c5.852-.017 11.704-.023 17.555-.024 4.766-.001 9.532-.005 14.298-.012a28939.709 28939.709 0 0 1 42.912-.025h2.21c11.808.001 23.616-.018 35.423-.046 12.179-.029 24.358-.042 36.536-.04 6.816 0 13.631-.005 20.446-.027 6.418-.02 12.836-.02 19.254-.005 2.337.002 4.674-.003 7.01-.015 31.5-.154 62.597 4.841 86.793 26.504l2.707 2.422c18.241 17.246 29.96 42.238 30.859 67.413.099 5.585.082 11.166.05 16.752.003 2.518.008 5.037.016 7.556.013 6.083.002 12.167-.02 18.25-.023 7.107-.021 14.213-.019 21.32.004 12.69-.017 25.38-.051 38.07-.033 12.275-.047 24.55-.041 36.824.008 15.563-.002 31.126-.025 46.69a8801.38 8801.38 0 0 0-.006 14.812c.002 6.659-.013 13.318-.04 19.977-.006 2.433-.008 4.866-.005 7.3.034 29.99-5.848 55.855-26.425 78.614l-2.488 2.773c-16.957 17.937-40.335 28.406-65.05 29.321-2.82.04-5.639.049-8.46.046l-3.255.01c-3.583.008-7.166.01-10.75.011l-7.728.015c-6.988.014-13.976.02-20.964.024l-13.112.012c-12.122.012-24.245.022-36.367.026h-4.7l-4.719.002h-2.364c-12.631.005-25.262.022-37.892.046-12.996.023-25.991.036-38.987.037-7.285 0-14.57.007-21.856.025-6.857.017-13.715.018-20.573.01-2.507-.001-5.014.003-7.522.013-27.41.102-52.623-3.849-74.213-22.371l-2.422-2.02C303.825 556.096 291.967 532.138 289 505c-.518-8.028-.411-16.078-.388-24.119-.004-2.385-.01-4.77-.016-7.156-.014-6.432-.009-12.864.001-19.296.005-4.029.004-8.058.002-12.087l-.002-2.037-.003-4.098c-.008-12.766.001-25.531.018-38.297a13119.1 13119.1 0 0 0-.003-32.735 19194.514 19194.514 0 0 1-.01-42.25l.001-2.029c.003-4.678-.002-9.356-.009-14.034a4616 4616 0 0 1 .015-18.956 1501.7 1501.7 0 0 0-.004-6.913c-.044-16.727.244-33.97 6.523-49.743l.903-2.35c10.138-25.334 29.904-46.293 55.025-57.13 3.548-1.403 7.157-2.53 10.822-3.583l2.03-.59c15.53-4.12 31.473-3.895 47.404-3.888Z"/><path fill="#208EE8" d="M572.25 197.375c2.75.625 2.75.625 4.688 2.063 2.996 7.225-1.309 16.448-3.7 23.398l-1.159 3.443c-1.033 3.067-2.075 6.13-3.119 9.193-1.09 3.201-2.168 6.407-3.246 9.612l-1.31 3.889-.654 1.946c-.657 1.95-1.315 3.902-1.974 5.852-5.32 15.77-10.46 31.598-15.574 47.436a1571.7 1571.7 0 0 1-4.215 12.87c-.6 1.806-1.196 3.613-1.791 5.421-.68 2.067-1.368 4.13-2.066 6.191-1.622 4.966-2.592 9.079-2.13 14.311 1.937 1.937 4.859 1.131 7.437 1.143l2.809-.001 2.941.01c2.116.008 4.231.013 6.347.017 3.344.007 6.689.022 10.033.041 9.513.053 19.025.1 28.537.116 5.81.01 11.621.04 17.432.081 2.22.013 4.439.018 6.658.015 3.1-.002 6.2.02 9.302.048l2.796-.02c6.194.091 6.194.091 8.794 2.411 1.4 3.278 1.087 4.75-.086 8.139-2.071 2.91-4.537 5.42-7 8-1.48 1.594-2.953 3.193-4.427 4.793a2037.176 2037.176 0 0 1-3.166 3.426 419.03 419.03 0 0 0-9.567 10.691c-2.407 2.734-4.873 5.411-7.34 8.09-3.039 3.3-6.062 6.61-9 10-3.362 3.877-6.83 7.652-10.304 11.429-5.534 6.02-11.042 12.065-16.384 18.259-4.107 4.723-8.416 9.258-12.697 13.822-2.923 3.122-5.827 6.247-8.615 9.49-3.899 4.529-8.01 8.859-12.094 13.22a1445.341 1445.341 0 0 0-20.843 22.717C509.819 497.56 501.91 506.033 494 514.5c-14.948 15.713-14.948 15.713-28.95 32.25l-1.613 2.051a487.59 487.59 0 0 0-3.175 4.097l-1.492 1.907-1.325 1.718c-2.542 2.599-4.873 3.406-8.445 3.852-3-.375-3-.375-5.437-1.812-2.343-3.842-1.392-7.33-.563-11.563 1.152-4.117 2.554-8.131 3.98-12.16l1.227-3.535c1.092-3.142 2.192-6.281 3.296-9.419 1.15-3.276 2.29-6.557 3.43-9.836 4.33-12.445 8.706-24.874 13.079-37.304 7.241-20.588 7.241-20.588 14.194-41.274.438-1.332.88-2.662 1.324-3.992a637.766 637.766 0 0 0 1.775-5.421l1-3.053c.8-3.457.947-6.47.695-10.006-1.984-2.428-1.984-2.428-5.851-2.214-1.703.007-3.406.024-5.11.05l-2.813.019c-2.021.014-4.042.033-6.063.056-3.199.034-6.397.055-9.595.072-9.095.049-18.19.12-27.285.209-5.559.053-11.118.088-16.677.11-2.12.012-4.24.032-6.36.06-2.966.038-5.931.052-8.898.06l-2.656.053c-4.048-.013-6.169-.158-9.702-2.298C384 405 384 405 382.812 401.75c.386-7.701 6.946-12.654 12.2-17.77 2.456-2.446 4.696-5.038 6.957-7.664 2.544-2.901 5.159-5.734 7.781-8.566l1.554-1.68 3.14-3.39c2.462-2.659 4.917-5.324 7.368-7.993l1.385-1.507a390.058 390.058 0 0 0 7.553-8.493c2.672-3.085 5.496-5.956 8.407-8.813 1.777-1.807 3.44-3.668 5.093-5.589 3.657-4.206 7.431-8.289 11.25-12.348l1.895-2.025a382.23 382.23 0 0 1 9.355-9.658c2.356-2.34 4.606-4.716 6.75-7.254 2.782-3.23 5.71-6.233 8.75-9.219 1.832-1.865 3.544-3.8 5.25-5.781 2.754-3.196 5.647-6.173 8.657-9.126 1.773-1.803 3.43-3.66 5.077-5.577 3.73-4.29 7.604-8.425 11.516-12.547 4.619-4.885 9.22-9.781 13.75-14.75a1404.55 1404.55 0 0 1 13.75-14.812l2.006-2.14c3.124-3.317 6.274-6.596 9.51-9.806 2.365-2.348 4.6-4.74 6.734-7.304 8.288-9.513 8.288-9.513 13.75-10.563Z"/><path fill="#FDFEFE" d="M545 675c78.67 0 78.67 0 95 15l1.828 1.664c12.498 12.78 16.673 30.84 16.526 48.152-.476 16.761-4.751 31.948-15.354 45.184l-1.512 1.895C631.533 798.004 616.284 802.959 602 805h-57V675Zm-102.25 30.688 2.137.017c12.157.28 21.071 4.804 29.426 13.545 3.817 4.516 6.009 9.109 7.687 14.75l1.082 3.547c4.179 17.166 1.662 37.291-7.062 52.5-5.812 8.498-14.46 14.44-24.563 16.633-11.801 1.538-20.7.252-30.894-5.68-2.563-2-2.563-2-5.563-6l-1 49h-24V707h24l1 13 3.063-3.75c6.636-7.573 14.638-10.647 24.687-10.562Z"/><path fill="#FCFDFE" d="M747 715c7.245 7.108 9.221 15.848 9.34 25.745.011 2.994-.016 5.987-.047 8.982a2383.67 2383.67 0 0 1-.087 17.337c-.03 4.276-.044 8.553-.06 12.83-.032 8.37-.084 16.738-.146 25.106h-23v-12h-2l-.687 1.688c-3.861 6.801-10.16 9.928-17.313 12.312-12.234.752-22.341.738-32.312-7.187-6.033-5.68-9.168-12.19-9.926-20.391-.233-8.363 1.697-15.717 7.547-22.02 9.588-7.95 21.813-9.435 33.691-11.402l3.965-.687c5.085-.84 9.872-1.404 15.035-1.313-.25-6.318-.59-11.1-5-16-5.988-2.979-12.969-3.104-19.383-1.348-5.184 2.297-7.682 5.578-10.617 10.348a305.374 305.374 0 0 1-15.5-1.937l-3.094-.465L675 734l-1-2c3.436-9.71 8.85-16.834 18.035-21.562 17.273-7.535 39.66-7.28 54.965 4.562Zm-388.23-1.805c5.439 4.401 8.35 10.168 10.23 16.805.17 2.517.236 5.043.227 7.566v2.22a1207.97 1207.97 0 0 1-.032 7.206l-.008 5.019c-.008 4.39-.028 8.779-.05 13.168-.02 4.485-.03 8.97-.04 13.454-.02 8.789-.056 17.578-.097 26.367h-23l-1-11-2.375 3.188C338.196 802.386 331.737 805.8 325 807c-10.371.77-19.958.869-29-5-5.547-4.817-10.193-10.527-11.299-18.024a81 81 0 0 1-.139-6.413l.03-2.28c.267-8.33 2.535-12.693 8.47-18.533 7.785-7.231 19.166-8.613 29.256-10.188a646.34 646.34 0 0 0 6.028-.98c5.615-.907 10.953-1.714 16.654-1.582-.976-8.91-.976-8.91-6-16-5.723-2.74-11.932-2.971-18.094-1.5-5.84 2.254-9.3 6.619-12.906 11.5-3.315-.611-6.627-1.241-9.937-1.875l-2.866-.527-2.724-.528-2.524-.476L288 734l-1-2c3.436-9.712 8.855-16.873 18.07-21.562 16.785-7.259 38.021-7.263 53.7 2.757Z"/><path fill="#FDFDFE" d="M178 675h90c0 22.986 0 22.986-7.312 32.313l-2.22 3.067c-2.116 2.906-4.284 5.765-6.468 8.62a676.144 676.144 0 0 0-3.055 4.188 607.239 607.239 0 0 1-5.25 7.132c-3.691 4.987-7.149 10.133-10.636 15.263C226.8 754.787 220.397 763.891 214 773l-7 10h64v22h-96c0-19.503 0-19.503 6.625-27.812l2.056-2.787c1.4-1.897 2.815-3.782 4.245-5.656 3.175-4.202 6.145-8.538 9.137-12.87a3360.95 3360.95 0 0 1 3.464-4.934c2.948-4.192 5.887-8.39 8.824-12.591a7129.686 7129.686 0 0 1 16.392-23.357c4.028-5.708 8.146-11.34 12.257-16.993l-60-1v-22Z"/><path fill="#FCFDFE" d="M764 707h27a2502.778 2502.778 0 0 1 17.1 56.8l1.494 5.153.693 2.424c.81 3.6.81 3.6 2.713 6.623 2.01-6.272 4.018-12.544 6.024-18.817.68-2.123 1.359-4.245 2.04-6.367 4.03-12.575 8.002-25.16 11.763-37.818l.823-2.746.72-2.423C835 708 835 708 836 707a107.6 107.6 0 0 1 5.566-.098l3.409.01 3.587.025 3.6.014c2.946.012 5.892.028 8.838.049-2.271 7.892-4.899 15.637-7.613 23.387l-1.353 3.878a10220.93 10220.93 0 0 1-5.84 16.69c-2.718 7.757-5.44 15.512-8.165 23.266a5460.593 5460.593 0 0 0-4.319 12.337 3380.05 3380.05 0 0 1-4.8 13.665c-.555 1.574-1.107 3.149-1.654 4.725-10.432 29.997-10.432 29.997-24.381 37.49-9.472 4.15-21.136 3.595-30.875.562-1.061-3.184-.959-4.085-.223-7.23l.557-2.432.604-2.525.591-2.561c.483-2.086.976-4.17 1.471-6.252l3.14.07c1.37.02 2.74.037 4.11.055l2.066.05c3.724.037 6.605.038 9.684-2.175 3.368-4.811 5.087-9.02 5-15-.902-3.993-2.314-7.76-3.75-11.59l-1.228-3.4A1740.65 1740.65 0 0 0 790 779.063c-.916-2.514-1.83-5.029-2.743-7.544a4648.539 4648.539 0 0 0-6.935-18.928c-2.007-5.454-4-10.913-5.994-16.372a5311.653 5311.653 0 0 0-8.552-23.285C764 708.112 764 708.112 764 707Z"/><path fill="#1F8DE8" d="M571 697c38.62 0 38.62 0 49.066 9.027 8.42 8.59 11.296 18.767 11.344 30.627l-.035 2.909.035 2.92c-.046 11.397-3.34 21.734-11.039 30.337C606.767 785.383 588.52 783 571 783v-86Zm-122.816 31.547c5.826 4.66 9.514 12.199 10.816 19.453 1.057 11.51.218 23.382-7.375 32.625-4.807 4.796-8.697 6.534-15.5 6.875-5.922-.183-9.83-1.368-14.125-5.5-8.874-10.597-9.15-22.769-8-36 1.618-7.425 5.323-13.4 11.563-17.812 7.085-3.453 15.726-3.597 22.62.359Z"/><path fill="#1E8BE8" d="M732 759c.472 7.755.526 14.42-4 21-4.452 4.852-8.964 8.548-15.684 9.3-5.465.024-9.726.028-14.316-3.3-3.002-3.502-3.501-6.606-3.266-11.078.438-3.163 1.044-4.57 3.266-6.922 8.163-4.98 18.724-5.912 27.982-7.583C728.006 760 729.947 759 732 759Zm-387 0c.674 16.381.674 16.381-5.187 23.75-6.546 5.237-11.553 6.695-19.981 6.684-4.178-.64-6.727-2.271-9.617-5.313-2.205-3.85-1.814-7.829-1.215-12.121 1.512-3.089 2.686-4.45 5.872-5.783 5.609-1.842 11.214-3.2 17.003-4.342 1.664-.334 3.328-.67 4.992-1.008l2.191-.434c1.994-.444 3.907-1.433 5.942-1.433Z"/><path fill="#1583E7" d="m566 200 2 1c-1.426 3.362-3.143 5.237-5.937 7.563-2.46 2.064-4.827 4.13-7.063 6.437l-2-1 5.375-5.875 1.54-1.684c1.997-2.181 3.993-4.35 6.085-6.441Z"/><path fill="#1482E7" d="M481 291c0 3.698-.814 4.27-3.25 6.938l-1.926 2.12c-1.901 2.024-3.82 4.019-5.824 5.942l-2-1 5.375-5.875 1.54-1.684c1.997-2.181 3.993-4.35 6.085-6.441Z"/><path fill="#1081E6" d="m499 272 2 1c-3.958 4.825-7.592 8.834-13 12 1.536-3.68 3.782-5.988 6.625-8.75l2.477-2.422L499 272Z"/><path fill="#117FE5" d="M414 707h1c.417 1.766.808 3.538 1.188 5.313l.667 2.988L417 718l-3 3v-14Z"/></svg>